<svg xmlns="http://www.w3.org/2000/svg" fill="none" viewBox="0 0 48 48" id="Apps-Sharp--Streamline-Ionic-Sharp" height="48" width="48">
  <desc>
    Apps Sharp Streamline Icon: https://streamlinehq.com
  </desc>
  <path fill="#000000" d="M12.2394 0.4812H1.3846C0.885 0.4812 0.48 0.8862 0.48 1.3857v10.8549c0 0.4995 0.405 0.9046 0.9046 0.9046h10.8548c0.4995 0 0.9045 -0.4051 0.9045 -0.9046V1.3857c0 -0.4995 -0.405 -0.9045 -0.9045 -0.9045Z" stroke-width="1"></path>
  <path fill="#000000" d="M29.4286 0.4812H18.5738c-0.4996 0 -0.9046 0.405 -0.9046 0.9045v10.8549c0 0.4995 0.405 0.9046 0.9046 0.9046h10.8548c0.4996 0 0.9046 -0.4051 0.9046 -0.9046V1.3857c0 -0.4995 -0.405 -0.9045 -0.9046 -0.9045Z" stroke-width="1"></path>
  <path fill="#000000" d="M46.6154 0.4812H35.7606c-0.4996 0 -0.9046 0.405 -0.9046 0.9045v10.8549c0 0.4995 0.405 0.9046 0.9046 0.9046h10.8548c0.4996 0 0.9046 -0.4051 0.9046 -0.9046V1.3857c0 -0.4995 -0.405 -0.9045 -0.9046 -0.9045Z" stroke-width="1"></path>
  <path fill="#000000" d="M12.2394 17.668H1.3846c-0.4996 0 -0.9046 0.405 -0.9046 0.9046v10.8548c0 0.4996 0.405 0.9046 0.9046 0.9046h10.8548c0.4995 0 0.9045 -0.405 0.9045 -0.9046V18.5726c0 -0.4996 -0.405 -0.9046 -0.9045 -0.9046Z" stroke-width="1"></path>
  <path fill="#000000" d="M29.4286 17.668H18.5738c-0.4996 0 -0.9046 0.405 -0.9046 0.9046v10.8548c0 0.4996 0.405 0.9046 0.9046 0.9046h10.8548c0.4996 0 0.9046 -0.405 0.9046 -0.9046V18.5726c0 -0.4996 -0.405 -0.9046 -0.9046 -0.9046Z" stroke-width="1"></path>
  <path fill="#000000" d="M46.6154 17.668H35.7606c-0.4996 0 -0.9046 0.405 -0.9046 0.9046v10.8548c0 0.4996 0.405 0.9046 0.9046 0.9046h10.8548c0.4996 0 0.9046 -0.405 0.9046 -0.9046V18.5726c0 -0.4996 -0.405 -0.9046 -0.9046 -0.9046Z" stroke-width="1"></path>
  <path fill="#000000" d="M12.2394 34.8548H1.3846c-0.4996 0 -0.9046 0.4051 -0.9046 0.9046v10.8549c0 0.4995 0.405 0.9045 0.9046 0.9045h10.8548c0.4995 0 0.9045 -0.405 0.9045 -0.9045V35.7594c0 -0.4995 -0.405 -0.9046 -0.9045 -0.9046Z" stroke-width="1"></path>
  <path fill="#000000" d="M29.4286 34.8548H18.5738c-0.4996 0 -0.9046 0.4051 -0.9046 0.9046v10.8549c0 0.4995 0.405 0.9045 0.9046 0.9045h10.8548c0.4996 0 0.9046 -0.405 0.9046 -0.9045V35.7594c0 -0.4995 -0.405 -0.9046 -0.9046 -0.9046Z" stroke-width="1"></path>
  <path fill="#000000" d="M46.6154 34.8548H35.7606c-0.4996 0 -0.9046 0.4051 -0.9046 0.9046v10.8549c0 0.4995 0.405 0.9045 0.9046 0.9045h10.8548c0.4996 0 0.9046 -0.405 0.9046 -0.9045V35.7594c0 -0.4995 -0.405 -0.9046 -0.9046 -0.9046Z" stroke-width="1"></path>
</svg>